<svg xmlns="http://www.w3.org/2000/svg" xmlns:xlink="http://www.w3.org/1999/xlink" width="40" zoomAndPan="magnify" viewBox="0 0 30 30.000001" height="40" preserveAspectRatio="xMidYMid meet" version="1.0"><path stroke-linecap="round" transform="matrix(0.498992, 0, 0, 0.498992, 3.387096, 2.557716)" fill="none" stroke-linejoin="round" d="M 14.270203 5.520699 L 12.289648 5.520699 C 11.342425 5.520699 10.567425 6.373982 10.567425 7.422971 L 10.567425 40.583578 C 10.567425 41.624739 11.342425 42.478022 12.289648 42.478022 L 14.270203 42.478022 " stroke="#ffffff" stroke-width="2.4" stroke-opacity="1" stroke-miterlimit="4"/><path stroke-linecap="round" transform="matrix(0.498992, 0, 0, 0.498992, 3.387096, 2.557716)" fill="none" stroke-linejoin="round" d="M 14.270203 5.520699 L 14.270203 42.478022 L 35.704042 42.478022 C 36.651264 42.478022 37.426264 41.624739 37.426264 40.583578 L 37.426264 7.422971 C 37.426264 6.373982 36.651264 5.520699 35.704042 5.520699 Z M 14.270203 5.520699 " stroke="#ffffff" stroke-width="2.4" stroke-opacity="1" stroke-miterlimit="4"/><path stroke-linecap="round" transform="matrix(0.498992, 0, 0, 0.498992, 3.387096, 2.557716)" fill="none" stroke-linejoin="round" d="M 26.544951 5.849487 L 26.544951 13.051507 L 30.2399 10.922214 L 33.958335 13.067163 L 33.958335 5.614638 " stroke="#ffffff" stroke-width="2.4" stroke-opacity="1" stroke-miterlimit="4"/><path stroke-linecap="round" transform="matrix(0.498992, 0, 0, 0.498992, 3.387096, 2.557716)" fill="none" stroke-linejoin="round" d="M 20.188385 28.301002 L 33.011112 28.301002 L 33.011112 25.381052 L 20.188385 25.381052 C 20.188385 26.351759 20.188385 27.330295 20.188385 28.301002 Z M 20.188385 28.301002 " stroke="#ffffff" stroke-width="2.4" stroke-opacity="1" stroke-miterlimit="4"/><path stroke-linecap="round" transform="matrix(0.498992, 0, 0, 0.498992, 3.387096, 2.557716)" fill="none" stroke-linejoin="round" d="M 20.188385 34.164386 L 29.707577 34.164386 L 29.707577 31.330547 L 20.188385 31.330547 C 20.188385 32.301254 20.188385 33.193679 20.188385 34.164386 Z M 20.188385 34.164386 " stroke="#ffffff" stroke-width="2.4" stroke-opacity="1" stroke-miterlimit="4"/></svg>